<svg width="45" height="30" viewBox="0 0 45 30" fill="none" xmlns="http://www.w3.org/2000/svg">
<path d="M0 10C0 4.47715 4.47715 0 10 0H35C40.5228 0 45 4.47715 45 10V10H0V10Z" fill="#FDCB69"/>
<rect y="13" width="45" height="7" rx="3.5" fill="#FFAFDA"/>
<path d="M0 16C0 13.7909 1.79086 12 4 12H41C43.2091 12 45 13.7909 45 16V16H0V16Z" fill="#9E6002"/>
<path d="M0 23H45V28C45 29.1046 44.1046 30 43 30H2C0.89543 30 0 29.1046 0 28V23Z" fill="#F2C94C"/>
<path opacity="0.33" fill-rule="evenodd" clip-rule="evenodd" d="M28.2304 10L40.681 1.76927C39.0675 0.653549 37.1101 0 35 0H10C4.47715 0 0 4.47715 0 10H28.2304ZM25.205 12H4C1.79086 12 0 13.7909 0 16H0.0354444C0.012086 16.1633 0 16.3302 0 16.5C0 18.433 1.567 20 3.5 20H13.1035L25.205 12ZM8.56542 23H0V28C0 28.2096 0.0322437 28.4117 0.0920416 28.6015L8.56542 23Z" fill="#F3F3F3"/>
</svg>
